<!DOCTYPE svg PUBLIC "-//W3C//DTD SVG 1.1//EN" "http://www.w3.org/Graphics/SVG/1.1/DTD/svg11.dtd">
                <svg xmlns="http://www.w3.org/2000/svg" xmlns:xlink="http://www.w3.org/1999/xlink" 
                width="546" height="1979" shape-rendering="optimizeSpeed">
                
            <g>
                <rect x="50" y="80"
            width="180.4" height="30"
            style="fill:#fff; stroke:#444; stroke-width:1" />
                    
                <line x1="55" y1="80" x2="55" y2="110"
                style="fill:#fff; stroke:#444; stroke-width:1" />
                <line x1="225.4" y1="80" x2="225.4" y2="110"
                style="fill:#fff; stroke:#444; stroke-width:1" />
             
                <title>import from&quot;react&quot;</title>
            <text x="70" y="100"
                font-family="monospace" font-size="13" fill="#222">
                <tspan x="70" y="100">import from&quot;react&quot;</tspan>
            </text>
                
            </g>
                <g>
                   <rect x="87" y="128.5"
            width="100.2" height="30"
            rx="2" ry="2"
            style="fill:#81d4fa; stroke:#444; stroke-width:1" />
                   <title>useEffect</title>
            <text x="102" y="148.5"
                font-family="monospace" font-size="13" fill="#222">
                <tspan x="102" y="148.5">useEffect</tspan>
            </text>
                   
                   
                </g>
            <g>
                <rect x="50" y="192"
            width="266.2" height="30"
            style="fill:#fff; stroke:#444; stroke-width:1" />
                    
                <line x1="55" y1="192" x2="55" y2="222"
                style="fill:#fff; stroke:#444; stroke-width:1" />
                <line x1="311.2" y1="192" x2="311.2" y2="222"
                style="fill:#fff; stroke:#444; stroke-width:1" />
             
                <title>import from&quot;react-router-dom&quot;</title>
            <text x="70" y="212"
                font-family="monospace" font-size="13" fill="#222">
                <tspan x="70" y="212">import from&quot;react-router-dom&quot;</tspan>
            </text>
                
            </g>
                <g>
                   <rect x="87" y="240.5"
            width="108" height="30"
            rx="2" ry="2"
            style="fill:#81d4fa; stroke:#444; stroke-width:1" />
                   <title>HashRouter</title>
            <text x="102" y="260.5"
                font-family="monospace" font-size="13" fill="#222">
                <tspan x="102" y="260.5">HashRouter</tspan>
            </text>
                   
                   
                </g>
                <g>
                   <rect x="87" y="289"
            width="76.8" height="30"
            rx="2" ry="2"
            style="fill:#81d4fa; stroke:#444; stroke-width:1" />
                   <title>Routes</title>
            <text x="102" y="309"
                font-family="monospace" font-size="13" fill="#222">
                <tspan x="102" y="309">Routes</tspan>
            </text>
                   
                   
                </g>
                <g>
                   <rect x="87" y="337.5"
            width="69" height="30"
            rx="2" ry="2"
            style="fill:#81d4fa; stroke:#444; stroke-width:1" />
                   <title>Route</title>
            <text x="102" y="357.5"
                font-family="monospace" font-size="13" fill="#222">
                <tspan x="102" y="357.5">Route</tspan>
            </text>
                   
                   
                </g>
            <g>
                <rect x="50" y="401"
            width="227.2" height="30"
            style="fill:#fff; stroke:#444; stroke-width:1" />
                    
                <line x1="55" y1="401" x2="55" y2="431"
                style="fill:#fff; stroke:#444; stroke-width:1" />
                <line x1="272.2" y1="401" x2="272.2" y2="431"
                style="fill:#fff; stroke:#444; stroke-width:1" />
             
                <title>import from&apos;react-redux&apos;</title>
            <text x="70" y="421"
                font-family="monospace" font-size="13" fill="#222">
                <tspan x="70" y="421">import from&apos;react-redux&apos;</tspan>
            </text>
                
            </g>
                <g>
                   <rect x="87" y="449.5"
            width="115.8" height="30"
            rx="2" ry="2"
            style="fill:#81d4fa; stroke:#444; stroke-width:1" />
                   <title>useDispatch</title>
            <text x="102" y="469.5"
                font-family="monospace" font-size="13" fill="#222">
                <tspan x="102" y="469.5">useDispatch</tspan>
            </text>
                   
                   
                </g>
            <g>
                <rect x="50" y="513"
            width="328.59999999999997" height="30"
            style="fill:#fff; stroke:#444; stroke-width:1" />
                    
                <line x1="55" y1="513" x2="55" y2="543"
                style="fill:#fff; stroke:#444; stroke-width:1" />
                <line x1="373.59999999999997" y1="513" x2="373.59999999999997" y2="543"
                style="fill:#fff; stroke:#444; stroke-width:1" />
             
                <title>import from&quot;./pages/fyp/counterSlice&quot;</title>
            <text x="70" y="533"
                font-family="monospace" font-size="13" fill="#222">
                <tspan x="70" y="533">import from&quot;./pages/fyp/counterSlice&quot;</tspan>
            </text>
                
            </g>
                <g>
                   <rect x="87" y="561.5"
            width="178.2" height="30"
            rx="2" ry="2"
            style="fill:#81d4fa; stroke:#444; stroke-width:1" />
                   <title>setInitOffModelData</title>
            <text x="102" y="581.5"
                font-family="monospace" font-size="13" fill="#222">
                <tspan x="102" y="581.5">setInitOffModelData</tspan>
            </text>
                   
                   
                </g>
            <g>
                <rect x="50" y="625"
            width="305.2" height="30"
            style="fill:#fff; stroke:#444; stroke-width:1" />
                    
                <line x1="55" y1="625" x2="55" y2="655"
                style="fill:#fff; stroke:#444; stroke-width:1" />
                <line x1="350.2" y1="625" x2="350.2" y2="655"
                style="fill:#fff; stroke:#444; stroke-width:1" />
             
                <title>import from&apos;react-mouse-particles&apos;</title>
            <text x="70" y="645"
                font-family="monospace" font-size="13" fill="#222">
                <tspan x="70" y="645">import from&apos;react-mouse-particles&apos;</tspan>
            </text>
                
            </g>
                <g>
                   <rect x="87" y="673.5"
            width="139.2" height="30"
            rx="2" ry="2"
            style="fill:#81d4fa; stroke:#444; stroke-width:1" />
                   <title>MouseParticles</title>
            <text x="102" y="693.5"
                font-family="monospace" font-size="13" fill="#222">
                <tspan x="102" y="693.5">MouseParticles</tspan>
            </text>
                   
                   
                </g>
            <g>
                <rect x="50" y="737"
            width="328.59999999999997" height="30"
            style="fill:#fff; stroke:#444; stroke-width:1" />
                    
                <line x1="55" y1="737" x2="55" y2="767"
                style="fill:#fff; stroke:#444; stroke-width:1" />
                <line x1="373.59999999999997" y1="737" x2="373.59999999999997" y2="767"
                style="fill:#fff; stroke:#444; stroke-width:1" />
             
                <title>import from&apos;./pages/fyp/LoginPage.js&apos;</title>
            <text x="70" y="757"
                font-family="monospace" font-size="13" fill="#222">
                <tspan x="70" y="757">import from&apos;./pages/fyp/LoginPage.js&apos;</tspan>
            </text>
                
            </g>
                <g>
                   <rect x="87" y="785.5"
            width="100.2" height="30"
            rx="2" ry="2"
            style="fill:#81d4fa; stroke:#444; stroke-width:1" />
                   <title>LoginPage</title>
            <text x="102" y="805.5"
                font-family="monospace" font-size="13" fill="#222">
                <tspan x="102" y="805.5">LoginPage</tspan>
            </text>
                   
                   
                </g>
            <g>
                <rect x="50" y="849"
            width="344.2" height="30"
            style="fill:#fff; stroke:#444; stroke-width:1" />
                    
                <line x1="55" y1="849" x2="55" y2="879"
                style="fill:#fff; stroke:#444; stroke-width:1" />
                <line x1="389.2" y1="849" x2="389.2" y2="879"
                style="fill:#fff; stroke:#444; stroke-width:1" />
             
                <title>import from&apos;./pages/fyp/SelectModel.js&apos;</title>
            <text x="70" y="869"
                font-family="monospace" font-size="13" fill="#222">
                <tspan x="70" y="869">import from&apos;./pages/fyp/SelectModel.js&apos;</tspan>
            </text>
                
            </g>
                <g>
                   <rect x="87" y="897.5"
            width="115.8" height="30"
            rx="2" ry="2"
            style="fill:#81d4fa; stroke:#444; stroke-width:1" />
                   <title>SelectModel</title>
            <text x="102" y="917.5"
                font-family="monospace" font-size="13" fill="#222">
                <tspan x="102" y="917.5">SelectModel</tspan>
            </text>
                   
                   
                </g>
            <g>
                <rect x="50" y="961"
            width="344.2" height="30"
            style="fill:#fff; stroke:#444; stroke-width:1" />
                    
                <line x1="55" y1="961" x2="55" y2="991"
                style="fill:#fff; stroke:#444; stroke-width:1" />
                <line x1="389.2" y1="961" x2="389.2" y2="991"
                style="fill:#fff; stroke:#444; stroke-width:1" />
             
                <title>import from&apos;./pages/fyp/PredictPage.js&apos;</title>
            <text x="70" y="981"
                font-family="monospace" font-size="13" fill="#222">
                <tspan x="70" y="981">import from&apos;./pages/fyp/PredictPage.js&apos;</tspan>
            </text>
                
            </g>
                <g>
                   <rect x="87" y="1009.5"
            width="115.8" height="30"
            rx="2" ry="2"
            style="fill:#81d4fa; stroke:#444; stroke-width:1" />
                   <title>PredictPage</title>
            <text x="102" y="1029.5"
                font-family="monospace" font-size="13" fill="#222">
                <tspan x="102" y="1029.5">PredictPage</tspan>
            </text>
                   
                   
                </g>
            <g>
                <rect x="50" y="1073"
            width="344.2" height="30"
            style="fill:#fff; stroke:#444; stroke-width:1" />
                    
                <line x1="55" y1="1073" x2="55" y2="1103"
                style="fill:#fff; stroke:#444; stroke-width:1" />
                <line x1="389.2" y1="1073" x2="389.2" y2="1103"
                style="fill:#fff; stroke:#444; stroke-width:1" />
             
                <title>import from&apos;./pages/fyp/HistoryPage.js&apos;</title>
            <text x="70" y="1093"
                font-family="monospace" font-size="13" fill="#222">
                <tspan x="70" y="1093">import from&apos;./pages/fyp/HistoryPage.js&apos;</tspan>
            </text>
                
            </g>
                <g>
                   <rect x="87" y="1121.5"
            width="115.8" height="30"
            rx="2" ry="2"
            style="fill:#81d4fa; stroke:#444; stroke-width:1" />
                   <title>HistoryPage</title>
            <text x="102" y="1141.5"
                font-family="monospace" font-size="13" fill="#222">
                <tspan x="102" y="1141.5">HistoryPage</tspan>
            </text>
                   
                   
                </g>
            <g>
                <rect x="50" y="1185"
            width="344.2" height="30"
            style="fill:#fff; stroke:#444; stroke-width:1" />
                    
                <line x1="55" y1="1185" x2="55" y2="1215"
                style="fill:#fff; stroke:#444; stroke-width:1" />
                <line x1="389.2" y1="1185" x2="389.2" y2="1215"
                style="fill:#fff; stroke:#444; stroke-width:1" />
             
                <title>import from&apos;./pages/fyp/SettingPage.js&apos;</title>
            <text x="70" y="1205"
                font-family="monospace" font-size="13" fill="#222">
                <tspan x="70" y="1205">import from&apos;./pages/fyp/SettingPage.js&apos;</tspan>
            </text>
                
            </g>
                <g>
                   <rect x="87" y="1233.5"
            width="115.8" height="30"
            rx="2" ry="2"
            style="fill:#81d4fa; stroke:#444; stroke-width:1" />
                   <title>SettingPage</title>
            <text x="102" y="1253.5"
                font-family="monospace" font-size="13" fill="#222">
                <tspan x="102" y="1253.5">SettingPage</tspan>
            </text>
                   
                   
                </g>
            <g>
                <rect x="50" y="1297"
            width="344.2" height="30"
            style="fill:#fff; stroke:#444; stroke-width:1" />
                    
                <line x1="55" y1="1297" x2="55" y2="1327"
                style="fill:#fff; stroke:#444; stroke-width:1" />
                <line x1="389.2" y1="1297" x2="389.2" y2="1327"
                style="fill:#fff; stroke:#444; stroke-width:1" />
             
                <title>import from&apos;./pages/fyp/PlayLabPage.js&apos;</title>
            <text x="70" y="1317"
                font-family="monospace" font-size="13" fill="#222">
                <tspan x="70" y="1317">import from&apos;./pages/fyp/PlayLabPage.js&apos;</tspan>
            </text>
                
            </g>
                <g>
                   <rect x="87" y="1345.5"
            width="115.8" height="30"
            rx="2" ry="2"
            style="fill:#81d4fa; stroke:#444; stroke-width:1" />
                   <title>PlayLabPage</title>
            <text x="102" y="1365.5"
                font-family="monospace" font-size="13" fill="#222">
                <tspan x="102" y="1365.5">PlayLabPage</tspan>
            </text>
                   
                   
                </g>
            <g>
                <rect x="50" y="1409"
            width="359.8" height="30"
            style="fill:#fff; stroke:#444; stroke-width:1" />
                    
                <line x1="55" y1="1409" x2="55" y2="1439"
                style="fill:#fff; stroke:#444; stroke-width:1" />
                <line x1="404.8" y1="1409" x2="404.8" y2="1439"
                style="fill:#fff; stroke:#444; stroke-width:1" />
             
                <title>import from&apos;./pages/fyp/smallComp/NavTop&apos;</title>
            <text x="70" y="1429"
                font-family="monospace" font-size="13" fill="#222">
                <tspan x="70" y="1429">import from&apos;./pages/fyp/smallComp/NavTop&apos;</tspan>
            </text>
                
            </g>
                <g>
                   <rect x="87" y="1457.5"
            width="76.8" height="30"
            rx="2" ry="2"
            style="fill:#81d4fa; stroke:#444; stroke-width:1" />
                   <title>NavTop</title>
            <text x="102" y="1477.5"
                font-family="monospace" font-size="13" fill="#222">
                <tspan x="102" y="1477.5">NavTop</tspan>
            </text>
                   
                   
                </g>
            <g>
                <rect x="50" y="1521"
            width="422.2" height="30"
            style="fill:#fff; stroke:#444; stroke-width:1" />
                    
                <line x1="55" y1="1521" x2="55" y2="1551"
                style="fill:#fff; stroke:#444; stroke-width:1" />
                <line x1="467.2" y1="1521" x2="467.2" y2="1551"
                style="fill:#fff; stroke:#444; stroke-width:1" />
             
                <title>import from&apos;bootstrap/dist/css/bootstrap.min.css&apos;</title>
            <text x="70" y="1541"
                font-family="monospace" font-size="13" fill="#222">
                <tspan x="70" y="1541">import from&apos;bootstrap/dist/css/bootstrap.min.css&apos;</tspan>
            </text>
                
            </g>
            <g>
                <rect x="50" y="1569.5"
            width="227.2" height="30"
            style="fill:#fff; stroke:#444; stroke-width:1" />
                    
                <line x1="55" y1="1569.5" x2="55" y2="1599.5"
                style="fill:#fff; stroke:#444; stroke-width:1" />
                <line x1="272.2" y1="1569.5" x2="272.2" y2="1599.5"
                style="fill:#fff; stroke:#444; stroke-width:1" />
             
                <title>import from&apos;./index.css&apos;</title>
            <text x="70" y="1589.5"
                font-family="monospace" font-size="13" fill="#222">
                <tspan x="70" y="1589.5">import from&apos;./index.css&apos;</tspan>
            </text>
                
            </g>
            <g>
                <rect x="50" y="1618"
            width="159.2" height="30"
            style="fill:#a5d6a7; stroke:#444; stroke-width:1" />
                    
                <line x1="60" y1="1618" x2="60" y2="1648"
                style="fill:#a5d6a7; stroke:#444; stroke-width:1" />
                <line x1="199.2" y1="1618" x2="199.2" y2="1648"
                style="fill:#a5d6a7; stroke:#444; stroke-width:1" />
             
                <title>function App()</title>
            <text x="75" y="1638"
                font-family="monospace" font-size="13" fill="#222">
                <tspan x="75" y="1638">function App()</tspan>
            </text>
                
            </g>
                <g>
                   <rect x="87" y="1666.5"
            width="264" height="30"
            rx="3" ry="3"
            style="fill:#90caf9; stroke:#444; stroke-width:1" />
                   <title>const dispatch = useDispatch()</title>
            <text x="102" y="1686.5"
                font-family="monospace" font-size="13" fill="#222">
                <tspan x="102" y="1686.5">const dispatch = useDispatch()</tspan>
            </text>
                   
                   
                </g>
                <g>
                   <rect x="87" y="1715"
            width="170.4" height="30"
            rx="2" ry="2"
            style="fill:#C5E1A5; stroke:#444; stroke-width:1" />
                   <title>useEffect(*(), [])</title>
            <text x="102" y="1735"
                font-family="monospace" font-size="13" fill="#222">
                <tspan x="102" y="1735">useEffect(*(), [])</tspan>
            </text>
                   
                   
                </g>
            <g>
                <rect x="124" y="1763.5"
            width="89" height="30"
            style="fill:#a5d6a7; stroke:#444; stroke-width:1" />
                    
                <line x1="134" y1="1763.5" x2="134" y2="1793.5"
                style="fill:#a5d6a7; stroke:#444; stroke-width:1" />
                <line x1="203" y1="1763.5" x2="203" y2="1793.5"
                style="fill:#a5d6a7; stroke:#444; stroke-width:1" />
             
                <title>() =&gt;</title>
            <text x="149" y="1783.5"
                font-family="monospace" font-size="13" fill="#222">
                <tspan x="149" y="1783.5">() =&gt;</tspan>
            </text>
                
            </g>
                <g>
                   <rect x="161" y="1812"
            width="271.79999999999995" height="30"
            rx="2" ry="2"
            style="fill:#C5E1A5; stroke:#444; stroke-width:1" />
                   <title>dispatch(setInitOffModelData())</title>
            <text x="176" y="1832"
                font-family="monospace" font-size="13" fill="#222">
                <tspan x="176" y="1832">dispatch(setInitOffModelData())</tspan>
            </text>
                   
                   
                </g>
            <g>
                <rect x="87" y="1860.5"
            width="412.2" height="30"
            rx="3" ry="3"
            style="fill:#90caf9; stroke:#444; stroke-width:1" />
                
                <line x1="499.2" y1="1870.5" x2="504.2" y2="1870.5"
                style="fill:#a5d6a7; stroke:#444; stroke-width:1" />
                
                <line x1="499.2" y1="1880.5" x2="504.2" y2="1880.5"
                style="fill:#a5d6a7; stroke:#444; stroke-width:1" />

                <path d="M504.2, 1864.5 L520.2, 1875.5 L504.2, 1886.5 Z" 
        fill="#a5d6a7" stroke="#444" stroke-width="1" />
                             
                <title>return &lt;div&gt;  
      &lt;HashRouter&gt;   
      &lt;Routes&gt;
        &lt;Route path=&quot;/&quot; element={&lt;LoginPage /&gt;} /&gt;

        &lt;Route path=&quot;/fyp&quot; element={&lt;NavTop /&gt;}&gt;
          &lt;Route path=&quot;select&quot; element={&lt;SelectModel /&gt;} /&gt;
          &lt;Route path=&quot;history&quot; element={&lt;HistoryPage /&gt;} /&gt;
          &lt;Route path=&quot;setting&quot; element={&lt;SettingPage /&gt;} /&gt;
          &lt;Route path=&quot;lab&quot; element={&lt;PlayLabPage /&gt;} /&gt;
          &lt;Route path=&quot;plays/:mdName&quot; element={&lt;PredictPage /&gt;} /&gt;
        &lt;/Route&gt;

      &lt;/Routes&gt;
    &lt;/HashRouter&gt; 

    &lt;MouseParticles g={1} color=&quot;random&quot; cull=&quot;col,image-wrapper&quot; /&gt;
    &lt;/div&gt;</title>
            <text x="102" y="1880.5"
                font-family="monospace" font-size="13" fill="#222">
                <tspan x="102" y="1880.5">return &lt;div&gt;  
      &lt;HashRouter&gt;   
      &lt;Rout...</tspan>
            </text>
                
            </g>
            <g>
                <rect x="50" y="1924"
            width="178.2" height="30"
            rx="3" ry="3"
            style="fill:#81d4fa; stroke:#444; stroke-width:1" />
                
                <line x1="228.2" y1="1934" x2="233.2" y2="1934"
                style="fill:#fff; stroke:#444; stroke-width:1" />
                
                <line x1="228.2" y1="1944" x2="233.2" y2="1944"
                style="fill:#fff; stroke:#444; stroke-width:1" />

                <path d="M233.2, 1925 L253.2, 1939 L233.2, 1953 Z" 
        fill="#fff" stroke="#444" stroke-width="1" />
                             
                <title>export default  App</title>
            <text x="65" y="1944"
                font-family="monospace" font-size="13" fill="#222">
                <tspan x="65" y="1944">export default  App</tspan>
            </text>
                
            </g>
            <g>
               <rect x="25" y="13.75"
            width="216.6" height="24"
            style="fill:#fff59d; stroke:#444; stroke-width:1" />
               <circle cx="25" cy="25" r="15"
        style="fill:#fff59d; stroke:#444; stroke-width:1" />
               <title>Program: source module</title>
            <text x="55" y="30"
                font-family="monospace" font-size="13" fill="#222">
                <tspan x="55" y="30">Program: source module</tspan>
            </text>
            </g>
            <g>
               <path d="M25, 40 L25 91 Q25 95
                29 95
                L42 95 "
        style="fill:none; stroke:#444; stroke-width:1" />
               <path d="M42, 92 L50, 95 L42, 98 Z" 
        fill="#333" />
            </g>
            <g>
               <path d="M68.5, 110 L68.5 139.5 Q68.5 143.5
                72.5 143.5
                L87 143.5 "
        style="fill:none; stroke:#444; stroke-width:1" />
               false
            </g>
            <g>
               <path d="M25, 40 L25 203 Q25 207
                29 207
                L42 207 "
        style="fill:none; stroke:#444; stroke-width:1" />
               <path d="M42, 204 L50, 207 L42, 210 Z" 
        fill="#333" />
            </g>
            <g>
               <path d="M68.5, 222 L68.5 251.5 Q68.5 255.5
                72.5 255.5
                L87 255.5 "
        style="fill:none; stroke:#444; stroke-width:1" />
               false
            </g>
            <g>
               <path d="M68.5, 222 L68.5 300 Q68.5 304
                72.5 304
                L87 304 "
        style="fill:none; stroke:#444; stroke-width:1" />
               false
            </g>
            <g>
               <path d="M68.5, 222 L68.5 348.5 Q68.5 352.5
                72.5 352.5
                L87 352.5 "
        style="fill:none; stroke:#444; stroke-width:1" />
               false
            </g>
            <g>
               <path d="M25, 40 L25 412 Q25 416
                29 416
                L42 416 "
        style="fill:none; stroke:#444; stroke-width:1" />
               <path d="M42, 413 L50, 416 L42, 419 Z" 
        fill="#333" />
            </g>
            <g>
               <path d="M68.5, 431 L68.5 460.5 Q68.5 464.5
                72.5 464.5
                L87 464.5 "
        style="fill:none; stroke:#444; stroke-width:1" />
               false
            </g>
            <g>
               <path d="M25, 40 L25 524 Q25 528
                29 528
                L42 528 "
        style="fill:none; stroke:#444; stroke-width:1" />
               <path d="M42, 525 L50, 528 L42, 531 Z" 
        fill="#333" />
            </g>
            <g>
               <path d="M68.5, 543 L68.5 572.5 Q68.5 576.5
                72.5 576.5
                L87 576.5 "
        style="fill:none; stroke:#444; stroke-width:1" />
               false
            </g>
            <g>
               <path d="M25, 40 L25 636 Q25 640
                29 640
                L42 640 "
        style="fill:none; stroke:#444; stroke-width:1" />
               <path d="M42, 637 L50, 640 L42, 643 Z" 
        fill="#333" />
            </g>
            <g>
               <path d="M68.5, 655 L68.5 684.5 Q68.5 688.5
                72.5 688.5
                L87 688.5 "
        style="fill:none; stroke:#444; stroke-width:1" />
               false
            </g>
            <g>
               <path d="M25, 40 L25 748 Q25 752
                29 752
                L42 752 "
        style="fill:none; stroke:#444; stroke-width:1" />
               <path d="M42, 749 L50, 752 L42, 755 Z" 
        fill="#333" />
            </g>
            <g>
               <path d="M68.5, 767 L68.5 796.5 Q68.5 800.5
                72.5 800.5
                L87 800.5 "
        style="fill:none; stroke:#444; stroke-width:1" />
               false
            </g>
            <g>
               <path d="M25, 40 L25 860 Q25 864
                29 864
                L42 864 "
        style="fill:none; stroke:#444; stroke-width:1" />
               <path d="M42, 861 L50, 864 L42, 867 Z" 
        fill="#333" />
            </g>
            <g>
               <path d="M68.5, 879 L68.5 908.5 Q68.5 912.5
                72.5 912.5
                L87 912.5 "
        style="fill:none; stroke:#444; stroke-width:1" />
               false
            </g>
            <g>
               <path d="M25, 40 L25 972 Q25 976
                29 976
                L42 976 "
        style="fill:none; stroke:#444; stroke-width:1" />
               <path d="M42, 973 L50, 976 L42, 979 Z" 
        fill="#333" />
            </g>
            <g>
               <path d="M68.5, 991 L68.5 1020.5 Q68.5 1024.5
                72.5 1024.5
                L87 1024.5 "
        style="fill:none; stroke:#444; stroke-width:1" />
               false
            </g>
            <g>
               <path d="M25, 40 L25 1084 Q25 1088
                29 1088
                L42 1088 "
        style="fill:none; stroke:#444; stroke-width:1" />
               <path d="M42, 1085 L50, 1088 L42, 1091 Z" 
        fill="#333" />
            </g>
            <g>
               <path d="M68.5, 1103 L68.5 1132.5 Q68.5 1136.5
                72.5 1136.5
                L87 1136.5 "
        style="fill:none; stroke:#444; stroke-width:1" />
               false
            </g>
            <g>
               <path d="M25, 40 L25 1196 Q25 1200
                29 1200
                L42 1200 "
        style="fill:none; stroke:#444; stroke-width:1" />
               <path d="M42, 1197 L50, 1200 L42, 1203 Z" 
        fill="#333" />
            </g>
            <g>
               <path d="M68.5, 1215 L68.5 1244.5 Q68.5 1248.5
                72.5 1248.5
                L87 1248.5 "
        style="fill:none; stroke:#444; stroke-width:1" />
               false
            </g>
            <g>
               <path d="M25, 40 L25 1308 Q25 1312
                29 1312
                L42 1312 "
        style="fill:none; stroke:#444; stroke-width:1" />
               <path d="M42, 1309 L50, 1312 L42, 1315 Z" 
        fill="#333" />
            </g>
            <g>
               <path d="M68.5, 1327 L68.5 1356.5 Q68.5 1360.5
                72.5 1360.5
                L87 1360.5 "
        style="fill:none; stroke:#444; stroke-width:1" />
               false
            </g>
            <g>
               <path d="M25, 40 L25 1420 Q25 1424
                29 1424
                L42 1424 "
        style="fill:none; stroke:#444; stroke-width:1" />
               <path d="M42, 1421 L50, 1424 L42, 1427 Z" 
        fill="#333" />
            </g>
            <g>
               <path d="M68.5, 1439 L68.5 1468.5 Q68.5 1472.5
                72.5 1472.5
                L87 1472.5 "
        style="fill:none; stroke:#444; stroke-width:1" />
               false
            </g>
            <g>
               <path d="M25, 40 L25 1532 Q25 1536
                29 1536
                L42 1536 "
        style="fill:none; stroke:#444; stroke-width:1" />
               <path d="M42, 1533 L50, 1536 L42, 1539 Z" 
        fill="#333" />
            </g>
            <g>
               <path d="M25, 40 L25 1580.5 Q25 1584.5
                29 1584.5
                L42 1584.5 "
        style="fill:none; stroke:#444; stroke-width:1" />
               <path d="M42, 1581.5 L50, 1584.5 L42, 1587.5 Z" 
        fill="#333" />
            </g>
            <g>
               <path d="M25, 40 L25 1629 Q25 1633
                29 1633
                L42 1633 "
        style="fill:none; stroke:#444; stroke-width:1" />
               <path d="M42, 1630 L50, 1633 L42, 1636 Z" 
        fill="#333" />
            </g>
            <g>
               <path d="M68.5, 1648 L68.5 1677.5 Q68.5 1681.5
                72.5 1681.5
                L79 1681.5 "
        style="fill:none; stroke:#444; stroke-width:1" />
               <path d="M79, 1678.5 L87, 1681.5 L79, 1684.5 Z" 
        fill="#333" />
            </g>
            <g>
               <path d="M68.5, 1648 L68.5 1726 Q68.5 1730
                72.5 1730
                L79 1730 "
        style="fill:none; stroke:#444; stroke-width:1" />
               <path d="M79, 1727 L87, 1730 L79, 1733 Z" 
        fill="#333" />
            </g>
            <g>
               <path d="M105.5, 1745 L105.5 1774.5 Q105.5 1778.5
                109.5 1778.5
                L124 1778.5 "
        style="fill:none; stroke:#444; stroke-width:1" />
               false
            </g>
            <g>
               <path d="M142.5, 1793.5 L142.5 1823 Q142.5 1827
                146.5 1827
                L153 1827 "
        style="fill:none; stroke:#444; stroke-width:1" />
               <path d="M153, 1824 L161, 1827 L153, 1830 Z" 
        fill="#333" />
            </g>
            <g>
               <path d="M68.5, 1648 L68.5 1871.5 Q68.5 1875.5
                72.5 1875.5
                L79 1875.5 "
        style="fill:none; stroke:#444; stroke-width:1" />
               <path d="M79, 1872.5 L87, 1875.5 L79, 1878.5 Z" 
        fill="#333" />
            </g>
            <g>
               <path d="M25, 40 L25 1935 Q25 1939
                29 1939
                L42 1939 "
        style="fill:none; stroke:#444; stroke-width:1" />
               <path d="M42, 1936 L50, 1939 L42, 1942 Z" 
        fill="#333" />
            </g>
            </svg>